PathFileType	4	(X/Y/Z)	Patient4_TMGait_0pt6_01_right_02.trc.trc
DataRate	CameraRate	NumFrames	NumMarkers	Units	OrigDataRate	OrigDataStartFrame	OrigNumFrames
82.840236686391	82.840236686391	4	33	mm	82.840236686391	18	       141
Frame#	Time	Sacral			L.Shoulder			Chest			R.Shoulder			Neck			R.ASIS			L.ASIS			R.Thigh.Superior			R.Thigh.Lateral			R.Thigh.Inferior			R.Patella			L.Thigh.Superior			L.Thigh.Lateral			L.Thigh.Inferior			L.Patella			L.Shank.Superior			L.Shank.Lateral			L.Shank.Inferior			R.Shank.Superior			R.Shank.Lateral			R.Shank.Inferior			R.Heel			R.Midfoot.Superior			R.Midfoot.Lateral			R.Toe			L.Heel			L.Midfoot.Lateral			L.Midfoot.Superior			L.Toe			L.Elbow			L.Wrist			R.Elbow			R.Wrist			
		X1	Y1	Z1	X2	Y2	Z2	X3	Y3	Z3	X4	Y4	Z4	X5	Y5	Z5	X6	Y6	Z6	X7	Y7	Z7	X8	Y8	Z8	X9	Y9	Z9	X10	Y10	Z10	X11	Y11	Z11	X12	Y12	Z12	X13	Y13	Z13	X14	Y14	Z14	X15	Y15	Z15	X16	Y16	Z16	X17	Y17	Z17	X18	Y18	Z18	X19	Y19	Z19	X20	Y20	Z20	X21	Y21	Z21	X22	Y22	Z22	X23	Y23	Z23	X24	Y24	Z24	X25	Y25	Z25	X26	Y26	Z26	X27	Y27	Z27	X28	Y28	Z28	X29	Y29	Z29	X30	Y30	Z30	X31	Y31	Z31	X32	Y32	Z32	X33	Y33	Z33	

18	2.005214285714	581.846059558351	1002.070683061065	412.053331918628	749.979940343444	1435.893072723055	234.924918145589	849.871217074782	1368.569487447133	397.684545993156	760.981828374581	1437.982161325891	569.854685837219	728.273952426819	1494.986821553581	389.663751987203	809.264507087015	940.307690842248	530.602654722451	798.654373269398	964.335181834962	254.871953395149	879.537532257585	765.465145999501	501.205846047187	837.024816619362	645.420156143890	576.734336390005	921.930527379830	604.156465750573	494.315222678946	954.023506689532	516.859730659043	513.101562315254	806.413374077889	736.321414261311	282.255292606210	689.534701338470	637.452034533970	228.941324357935	756.862154272020	546.871236060996	288.354532903810	743.886046120222	480.341177369231	300.004776590189	713.431904776890	413.030868099162	295.345019090625	611.404566206274	304.031317541794	255.398936835402	661.882557692438	191.598861302085	326.566474382998	930.131913493689	430.004316747890	522.645832416919	868.485606769035	321.735716726686	586.895701432814	928.261128273129	230.203923055312	533.856662352215	819.392297167760	50.460720502344	506.272692065190	985.492976828986	115.628624624185	545.686465344998	902.827273507555	45.068924133064	581.036075073307	1107.247108342421	72.421932115643	574.950248344967	533.111084772184	39.629013316139	387.952653486451	597.605039055765	34.348100020388	299.726396427581	683.915904556409	95.204131216635	316.149560955108	808.187870910719	41.694535582909	275.312848418365	821.123609594190	1099.584919851997	95.489931127559	1060.928247074347	1000.192446999333	102.626499404302	622.790816922948	1124.539258060632	681.527558649611	586.289078184138	866.522271440436	694.350949143519	
19	2.017285714286	582.414806431054	1001.041526037210	412.850370386622	750.856360379190	1434.431275075509	235.740843400704	850.313264991019	1367.350020204810	398.841216813562	761.108523399668	1437.211885587034	570.668344521742	728.660617952908	1493.852044934073	390.272329122002	809.366533255024	938.877377397015	532.119104809362	799.164229401104	963.185547630436	256.375903961215	877.393148837655	762.264016318133	503.263218053086	832.809897141654	642.453295238757	578.083809892258	917.897205668751	600.876414987412	495.916879161798	949.670393469355	515.283746487049	513.796422247676	804.983754599670	734.988442901996	283.211332632807	686.797322860603	637.268358285263	229.606843350982	752.933037767561	546.035111515309	289.099798790617	739.228271201753	479.543844426060	300.610932450366	708.267133228664	412.575636918748	295.814050616799	605.473625984338	304.319229698146	255.695482664549	655.238004773329	191.418622121232	326.664705832778	928.787432897832	428.780613663683	523.245377504544	870.806006401650	317.881665424548	586.584287590220	934.630073834462	228.808718915444	533.473523705563	832.313124211367	46.001404084961	504.528820103508	996.944995646866	115.084782218077	544.848248696783	915.659441819689	42.589926021890	579.589483446410	1119.591716943261	74.487771823260	574.229778540296	525.796261767302	39.683791318014	387.904402532338	590.281943058772	34.366508038926	299.700613424433	676.615691998382	95.194381381058	316.149555521505	800.846853745163	41.625351430848	275.333211265951	821.744702995801	1097.897308022145	97.036482505022	1062.615240375081	1001.629439121593	104.159281870192	620.960065883452	1125.060506983131	682.562862176167	583.385028113200	867.230130278596	696.047397125313	
20	2.029357142857	583.084643632921	999.893268754881	413.872392936383	751.679112027876	1432.866512293319	236.715186813061	850.807542071721	1366.056765886469	400.105029523215	761.324195836378	1436.290278645967	571.641537921829	729.057988143727	1492.601221847865	391.089332073057	809.679508072518	937.360244840097	533.739714438927	799.716391143350	961.913944886715	258.022966744041	875.763722240215	759.206831099462	505.360721448637	829.241676254080	639.533326339232	579.334327057040	914.535749790740	597.821376712714	497.388971842279	945.805105188653	513.615773196903	514.370671167979	803.753412692446	733.594529476512	284.303072443476	684.298268175172	637.013352889606	230.401439020611	749.258052078421	545.124146417460	289.981870244561	734.843019693066	478.634611155189	301.342327818009	703.339264753600	412.022792005241	296.384369495118	599.710510925280	304.587704283709	256.073482312289	648.660588180263	191.172485504425	326.810701952452	927.355650396606	427.329149791473	523.692388990155	872.126383049237	314.380139336589	585.955133714745	939.225451160935	227.417913172921	532.877736177371	841.993510115089	42.838294832221	502.613281050421	1005.624103242706	114.296786044024	543.730629732208	925.135043598001	40.780400469274	577.979705107881	1128.688009067624	75.253186308102	573.272774530722	518.470775471311	39.683639659698	387.854535278339	582.960849457208	34.359690739087	299.677459604055	669.302830551469	95.181418538893	316.163974596064	793.518307675260	41.550643037608	275.348659723932	822.078320159113	1096.001719976070	98.751598562008	1063.724474041407	1002.115435337467	105.850737254779	619.972053144261	1124.999517835568	683.777361386601	581.931448509914	867.249050755449	697.780791115270	
21	2.041428571429	583.845412041190	998.644231510574	415.131884873271	752.440667077994	1431.224186219005	237.859053759104	851.358061581753	1364.711311598766	401.482731261021	761.631111345398	1435.228722369219	572.789093896172	729.472772077251	1491.256290064166	392.127787956782	810.202616070398	935.782776616693	535.455972482511	800.289680525093	960.528182704258	259.806766345984	874.767512468716	756.416541045294	507.434880186839	826.460576730761	636.748654961655	580.419130227215	912.010535321411	595.116133312087	498.692559293457	942.601366997082	511.928430009918	514.777675558261	802.745450424674	732.148366167050	285.521102817375	682.081610986737	636.674186420414	231.341202148964	745.909777783694	544.128509120843	291.004413658304	730.821269843896	477.586841884022	302.204473616819	698.719836091548	411.346605486144	297.066954600789	594.163987248502	304.832860283704	256.549978840220	642.175561494160	190.847286407191	327.013144682935	925.969736783769	425.662844072117	523.954793984680	872.535962113747	311.240732588211	585.077663112874	942.037869110321	225.929055554795	532.094979611521	848.259771781220	40.756609420939	500.659696684598	1011.388124022596	113.173350120359	542.400810149718	931.127042250154	39.489394510348	576.333529396555	1134.477256327550	74.678657489852	572.149251341759	511.132657722558	39.626431554738	387.799856177581	575.645106479406	34.319789587134	299.658094103920	661.982866946918	95.160156762323	316.193630174530	786.212691795308	41.464374849325	275.355944722490	822.116075445714	1093.923857014799	100.628513398437	1064.265755491664	1001.633458469698	107.689514300343	619.821425734585	1124.351709299941	685.182293281356	581.918366019637	866.577590984659	699.552298852265	
